<?xml version="1.0" encoding="UTF-8" standalone="no"?>
<!-- Created with Inkscape (http://www.inkscape.org/) -->

<svg
   width="111.88921mm"
   height="111.88921mm"
   viewBox="0 0 111.88921 111.88921"
   version="1.1"
   id="svg5"
   inkscape:version="1.3.2 (091e20e, 2023-11-25, custom)"
   sodipodi:docname="Alcoholics_Anonymous_Text_White-2.svg"
   xmlns:inkscape="http://www.inkscape.org/namespaces/inkscape"
   xmlns:sodipodi="http://sodipodi.sourceforge.net/DTD/sodipodi-0.dtd"
   xmlns="http://www.w3.org/2000/svg"
   xmlns:svg="http://www.w3.org/2000/svg">
  <sodipodi:namedview
     id="namedview7"
     pagecolor="#ffffff"
     bordercolor="#666666"
     borderopacity="1.0"
     inkscape:pageshadow="2"
     inkscape:pageopacity="0.0"
     inkscape:pagecheckerboard="0"
     inkscape:document-units="mm"
     showgrid="false"
     inkscape:zoom="0.90583674"
     inkscape:cx="52.989681"
     inkscape:cy="170.56054"
     inkscape:window-width="1920"
     inkscape:window-height="1009"
     inkscape:window-x="1912"
     inkscape:window-y="-8"
     inkscape:window-maximized="1"
     inkscape:current-layer="g872"
     inkscape:showpageshadow="0"
     inkscape:deskcolor="#d1d1d1" />
  <defs
     id="defs2" />
  <g
     inkscape:label="Layer 1"
     inkscape:groupmode="layer"
     id="layer1"
     transform="translate(-44.845381,-77.069287)">
    <g
       id="g872"
       transform="matrix(1.1777812,0,0,1.1777812,42.254262,74.124834)"
       style="fill:#3977c3;fill-opacity:1">
      <path
         class="st0"
         d="M 61.8,54.3 V 38.9 c 0,-0.7 0,-1.6 -0.4,-2.6 -0.2,-0.5 -0.5,-0.9 -1,-1.2 -0.5,-0.3 -1.1,-0.5 -1.9,-0.5 -0.8,0 -1.4,0.2 -1.9,0.5 -0.8,0.5 -1.1,1.3 -1.3,2 -0.2,0.7 -0.2,1.4 -0.2,1.8 V 55 h 6.6 z"
         id="path826"
         style="fill:#f2f2f2;fill-opacity:1" />
      <path
         class="st0"
         d="M 49.7,2.5 C 23.5,2.5 2.2,23.8 2.2,50 2.2,76.2 23.5,97.5 49.7,97.5 75.9,97.5 97.2,76.3 97.2,50 97.2,23.8 75.9,2.5 49.7,2.5 Z M 5.1,50 c 0,-12.3 5,-23.4 13,-31.5 C 26,10.6 36.8,5.7 48.8,5.5 l -19.1,33 -19.1,33 C 7.1,65.2 5.1,57.8 5.1,50 Z m 32.4,7.5 V 70 H 34.7 V 57.5 H 33 V 55 h 1.7 V 38.9 c 0,-2.8 0.9,-4.5 2.1,-5.5 1.2,-1.1 2.7,-1.5 4.1,-1.5 1,0 3.3,0.2 4.6,2 1.4,2 1.4,3.4 1.4,5 V 70 H 44.1 V 57.5 Z m 43.7,24 C 73.1,89.6 62,94.6 49.7,94.6 37.4,94.6 26.3,89.6 18.2,81.5 15.7,79 13.4,76.1 11.6,73 H 49.8 88 c -2,3.2 -4.3,6 -6.8,8.5 z m -26,-24 V 70 H 52.4 V 57.5 H 50.7 V 55 h 1.7 V 38.9 c 0,-2.8 0.9,-4.5 2.1,-5.5 1.2,-1.1 2.7,-1.5 4.1,-1.5 1,0 3.3,0.2 4.6,2 1.4,2 1.4,3.4 1.4,5 V 70 H 61.8 V 57.5 Z m 14.4,-19 -19.1,-33 c 12,0.2 22.8,5.2 30.7,13 8.1,8.1 13.1,19.2 13.1,31.5 0,7.8 -2,15.2 -5.6,21.5 z"
         id="path828"
         style="fill:#f2f2f2;fill-opacity:1" />
      <path
         class="st0"
         d="M 44.1,54.3 V 38.9 c 0,-0.7 0,-1.6 -0.4,-2.6 -0.2,-0.5 -0.5,-0.9 -1,-1.2 -0.5,-0.3 -1.1,-0.5 -1.9,-0.5 -0.8,0 -1.4,0.2 -1.9,0.5 -0.8,0.5 -1.1,1.3 -1.3,2 -0.2,0.7 -0.2,1.4 -0.2,1.8 V 55 H 44 c 0.1,0 0.1,-0.7 0.1,-0.7 z"
         id="path830"
         style="fill:#f2f2f2;fill-opacity:1" />
      <text
         xml:space="preserve"
         style="font-style:normal;font-variant:normal;font-weight:bold;font-stretch:normal;font-size:9.58488px;line-height:1.25;font-family:Lato;-inkscape-font-specification:'Lato Bold';letter-spacing:0px;word-spacing:0px;fill:#f2f2f2;fill-opacity:1;stroke-width:0.224646"
         x="-43.488731"
         y="43.0448"
         id="text1"
         transform="rotate(-58.878351)"><tspan
           sodipodi:role="line"
           id="tspan1"
           style="font-style:normal;font-variant:normal;font-weight:normal;font-stretch:normal;font-size:9.58488px;font-family:Lato;-inkscape-font-specification:Lato;fill:#f2f2f2;fill-opacity:1;stroke-width:0.224646"
           x="-43.488731"
           y="43.0448">JEDINSTVO</tspan></text>
      <text
         xml:space="preserve"
         style="font-size:9.58488px;line-height:1.25;font-family:Lato;-inkscape-font-specification:Lato;letter-spacing:0px;word-spacing:0px;fill:#f2f2f2;fill-opacity:1;stroke-width:0.224646"
         x="45.432629"
         y="-43.358776"
         id="text2"
         transform="rotate(60.118151)"><tspan
           sodipodi:role="line"
           id="tspan2"
           style="font-style:normal;font-variant:normal;font-weight:normal;font-stretch:normal;font-size:9.58488px;font-family:Lato;-inkscape-font-specification:Lato;fill:#f2f2f2;fill-opacity:1;stroke-width:0.224646"
           x="45.432629"
           y="-43.358776">SLUŽENJE</tspan></text>
      <text
         xml:space="preserve"
         style="font-size:9.58488px;line-height:1.25;font-family:Lato;-inkscape-font-specification:Lato;letter-spacing:0px;word-spacing:0px;fill:#f2f2f2;fill-opacity:1;stroke-width:0.224646"
         x="23.243317"
         y="81.41243"
         id="text3"><tspan
           sodipodi:role="line"
           id="tspan3"
           style="font-style:normal;font-variant:normal;font-weight:normal;font-stretch:normal;font-size:9.58488px;font-family:Lato;-inkscape-font-specification:Lato;fill:#f2f2f2;fill-opacity:1;stroke-width:0.224646"
           x="23.243317"
           y="81.41243">OPORAVAK</tspan></text>
    </g>
  </g>
  <style
     type="text/css"
     id="style824">
	.st0{fill:#464646;}
</style>
</svg>
